Coordinates
version=1
nRows=37
nColumns=34
inDegrees=no

Units are S.I. units (second, meters, Newtons, ...)
If the header above contains a line with 'inDegrees', this indicates whether rotational values are in degrees (yes) or radians (no).

endheader
time	pelvis_tilt	pelvis_list	pelvis_rotation	pelvis_tx	pelvis_ty	pelvis_tz	hip_flexion_r	hip_adduction_r	hip_rotation_r	knee_angle_r	ankle_angle_r	subtalar_angle_r	mtp_angle_r	hip_flexion_l	hip_adduction_l	hip_rotation_l	knee_angle_l	ankle_angle_l	subtalar_angle_l	mtp_angle_l	lumbar_extension	lumbar_bending	lumbar_rotation	arm_flex_r	arm_add_r	arm_rot_r	elbow_flex_r	pro_sup_r	arm_flex_l	arm_add_l	arm_rot_l	elbow_flex_l	pro_sup_l
0.37	0.00209206	-0.0407883	0.0508901	0.325126	0.955836	-0.216786	0.0140403	0.0559693	-0.240444	0.269906	0.358197	0.156998	-0.0218757	0.482901	-0.114959	-0.15585	0.735552	0.083742	-0.0876105	-0.0218787	-0.238668	0.0751591	0.0393551	0.119302	-0.337141	0.275377	0.784521	1.70813	-0.150842	-0.225642	0.19839	0.541848	1.69711
0.38	0.00313745	-0.0376827	0.0506732	0.334712	0.955135	-0.216013	-0.00167197	0.0532706	-0.249045	0.264755	0.369532	0.174401	-0.0218713	0.486137	-0.110101	-0.168786	0.682219	0.0889772	-0.0658167	-0.0218744	-0.241227	0.0654503	0.0443586	0.128484	-0.341941	0.284132	0.790112	1.70688	-0.152229	-0.225291	0.191809	0.538331	1.69217
0.39	0.00433318	-0.0349941	0.0508302	0.344384	0.954296	-0.215298	-0.0178702	0.0510367	-0.258646	0.259292	0.38063	0.192282	-0.0218669	0.488411	-0.105376	-0.182387	0.628526	0.095408	-0.0360317	-0.02187	-0.243761	0.0561839	0.0487538	0.13749	-0.346438	0.292297	0.794687	1.70661	-0.153602	-0.224868	0.185456	0.534737	1.68761
0.4	0.00575741	-0.0326416	0.0512984	0.354151	0.953335	-0.214639	-0.0346823	0.0491816	-0.269365	0.253496	0.391454	0.210879	-0.0218624	0.489798	-0.100713	-0.196732	0.575124	0.103183	0.00248645	-0.0218657	-0.246358	0.0472625	0.0525815	0.146235	-0.350568	0.299867	0.798308	1.70716	-0.15504	-0.224426	0.179436	0.531155	1.68348
0.41	0.00748642	-0.0305336	0.0520055	0.364022	0.952265	-0.214031	-0.0522015	0.0476006	-0.281272	0.247399	0.401972	0.230371	-0.021858	0.49038	-0.0960439	-0.21185	0.522714	0.112287	0.0497794	-0.0218613	-0.249107	0.038574	0.055898	0.154626	-0.354274	0.306835	0.801063	1.70825	-0.156604	-0.224023	0.173876	0.527666	1.67987
0.42	0.00957521	-0.0285751	0.0528746	0.374005	0.951102	-0.21347	-0.070468	0.0461835	-0.294345	0.24108	0.412148	0.250817	-0.0218536	0.490264	-0.0913175	-0.227702	0.472035	0.122534	0.105061	-0.021857	-0.252077	0.0299977	0.0587783	0.162552	-0.357509	0.31317	0.803067	1.70957	-0.15834	-0.223721	0.168914	0.52434	1.67682
0.43	0.0120394	-0.0266768	0.053827	0.38411	0.949856	-0.212951	-0.0894527	0.044828	-0.308443	0.234656	0.42194	0.272121	-0.0218492	0.489587	-0.0865108	-0.244161	0.423856	0.133593	0.166684	-0.0218526	-0.25529	0.0214128	0.0613196	0.169878	-0.360232	0.318797	0.804454	1.7108	-0.160271	-0.223583	0.164689	0.521227	1.67434
0.44	0.0148422	-0.0247651	0.0547829	0.394345	0.948538	-0.212465	-0.109048	0.0434521	-0.323298	0.228265	0.431302	0.294026	-0.0218448	0.488528	-0.0816424	-0.261015	0.378959	0.145049	0.232215	-0.0218483	-0.258703	0.0127077	0.0636455	0.176439	-0.362414	0.323598	0.805367	1.71175	-0.162399	-0.223664	0.161321	0.518353	1.67239
0.45	0.0178891	-0.0227908	0.0556604	0.404721	0.947152	-0.212005	-0.129068	0.0420033	-0.338512	0.222059	0.440191	0.316121	-0.0218404	0.487302	-0.0767824	-0.277969	0.338127	0.156467	0.298621	-0.0218439	-0.262198	0.00379008	0.0659073	0.182041	-0.364034	0.327421	0.805953	1.71228	-0.16471	-0.224008	0.158885	0.515717	1.67089
0.46	0.0210313	-0.0207336	0.0563741	0.415252	0.945701	-0.211562	-0.149257	0.0404621	-0.353583	0.216184	0.448572	0.337866	-0.021836	0.486154	-0.0720538	-0.294661	0.302115	0.167454	0.362539	-0.0218396	-0.265581	-0.00540586	0.0682809	0.186472	-0.365088	0.330112	0.806349	1.71241	-0.167176	-0.224634	0.157384	0.513284	1.66975
0.47	0.0240795	-0.0185988	0.0568345	0.425952	0.944182	-0.211127	-0.169317	0.0388361	-0.367935	0.210771	0.456417	0.358631	-0.0218316	0.485328	-0.0676185	-0.310678	0.271612	0.177684	0.420598	-0.0218352	-0.268597	-0.0149197	0.0709586	0.189517	-0.365583	0.331535	0.806674	1.71219	-0.169765	-0.225539	0.156733	0.510988	1.66888
0.48	0.0268258	-0.016402	0.0569506	0.436838	0.942594	-0.210692	-0.188936	0.0371407	-0.380968	0.205929	0.463714	0.377752	-0.0218272	0.485043	-0.0636442	-0.325573	0.247185	0.186887	0.469758	-0.0218309	-0.270957	-0.0247743	0.0741343	0.190974	-0.36554	0.33161	0.807025	1.71176	-0.172449	-0.226687	0.156743	0.508737	1.66819
0.49	0.0290701	-0.0141458	0.0566355	0.447929	0.940934	-0.210253	-0.207826	0.0353703	-0.39212	0.201739	0.470453	0.394585	-0.0218228	0.485448	-0.0602558	-0.338882	0.229212	0.194806	0.507604	-0.0218266	-0.272371	-0.0349948	0.0779834	0.190674	-0.364984	0.330324	0.807464	1.71126	-0.175208	-0.228019	0.157133	0.506416	1.66765
0.5	0.0306453	-0.0117943	0.0558168	0.459244	0.939199	-0.209809	-0.225754	0.0334673	-0.400926	0.19827	0.476623	0.408574	-0.0218184	0.486602	-0.0574821	-0.350142	0.217813	0.201127	0.532574	-0.0218222	-0.272589	-0.0456307	0.0826415	0.188499	-0.363943	0.327743	0.808021	1.71079	-0.17803	-0.22946	0.157554	0.503906	1.66722
0.51	0.0314318	-0.00925842	0.054451	0.470798	0.937392	-0.209366	-0.242557	0.031306	-0.407064	0.195575	0.482202	0.41929	-0.021814	0.488463	-0.0552181	-0.358908	0.212808	0.205432	0.544074	-0.0218179	-0.271423	-0.0567693	0.0881848	0.184385	-0.36244	0.324007	0.80869	1.71043	-0.180913	-0.230933	0.157632	0.501095	1.6669
0.52	0.0313639	-0.00638933	0.0525376	0.482606	0.935513	-0.208935	-0.258143	0.0286868	-0.410388	0.193717	0.487139	0.426464	-0.0218096	0.490906	-0.0532095	-0.364793	0.2137	0.207177	0.542485	-0.0218135	-0.268766	-0.0685428	0.0946157	0.178335	-0.360481	0.319316	0.809432	1.7102	-0.183858	-0.232379	0.157023	0.49789	1.66665
0.53	0.0304324	-0.00297958	0.0501289	0.494677	0.933567	-0.20853	-0.272485	0.0253392	-0.41095	0.192773	0.491355	0.430008	-0.0218053	0.493745	-0.0510655	-0.367537	0.219719	0.205729	0.529081	-0.0218092	-0.264608	-0.0811304	0.101858	0.170411	-0.35806	0.313908	0.81018	1.7101	-0.186859	-0.233766	0.155462	0.49423	1.66642
0.54	0.0286927	0.00123994	0.0473308	0.507008	0.931597	-0.208181	-0.285606	0.0209378	-0.408995	0.192864	0.494731	0.430028	-0.0218009	0.496773	-0.0483016	-0.367073	0.229895	0.200463	0.505845	-0.0218049	-0.259032	-0.0947444	0.109758	0.160728	-0.355148	0.308038	0.810846	1.71009	-0.189897	-0.235106	0.152801	0.490088	1.66609
0.55	0.0262474	0.00654936	0.0443013	0.519587	0.929632	-0.207906	-0.297557	0.0151244	-0.404934	0.194157	0.497104	0.426799	-0.0217965	0.499791	-0.0444017	-0.363577	0.243186	0.190904	0.475216	-0.0218005	-0.252213	-0.109627	0.118105	0.149446	-0.351698	0.301958	0.811332	1.71012	-0.192928	-0.236451	0.149021	0.485478	1.66552
0.56	0.023229	0.0132144	0.0412364	0.532394	0.927709	-0.207725	-0.308393	0.00755096	-0.399278	0.19688	0.498256	0.420709	-0.0217921	0.502636	-0.0388954	-0.357473	0.258603	0.176888	0.43978	-0.0217962	-0.244411	-0.126016	0.126642	0.136759	-0.347651	0.2959	0.811538	1.71014	-0.195877	-0.237893	0.144219	0.480441	1.66454
0.57	0.0197858	0.0214465	0.038349	0.545398	0.925867	-0.20765	-0.318149	-0.00207037	-0.39255	0.201322	0.497896	0.412173	-0.0217877	0.505203	-0.0314296	-0.34937	0.275323	0.158696	0.401967	-0.0217919	-0.235941	-0.144109	0.1351	0.122889	-0.342944	0.290069	0.81137	1.71007	-0.198642	-0.23954	0.138572	0.47505	1.66304
0.58	0.0160658	0.0313645	0.0358475	0.558563	0.92415	-0.207691	-0.326801	-0.0139174	-0.385181	0.207824	0.495647	0.40153	-0.0217833	0.507447	-0.0218215	-0.339959	0.29276	0.137126	0.363797	-0.0217875	-0.227145	-0.164021	0.143214	0.108076	-0.337519	0.284651	0.810747	1.70981	-0.201093	-0.241502	0.132283	0.469397	1.66093
0.59	0.0121996	0.0429637	0.0339123	0.571844	0.922602	-0.207851	-0.334244	-0.028019	-0.377432	0.216779	0.491036	0.388957	-0.0217789	0.509376	-0.0100855	-0.329903	0.310579	0.113475	0.326748	-0.0217832	-0.218354	-0.185744	0.15075	0.0925766	-0.33134	0.279822	0.809604	1.70924	-0.203087	-0.243861	0.125533	0.463585	1.65828
0.6	0.00828324	0.0560994	0.0326741	0.585194	0.921265	-0.208126	-0.340262	-0.0442361	-0.369344	0.228621	0.483506	0.374428	-0.0217745	0.511036	0.00356739	-0.319755	0.32865	0.0894167	0.291755	-0.0217789	-0.209846	-0.209128	0.157524	0.0766596	-0.324406	0.275766	0.807891	1.70826	-0.204482	-0.246652	0.118434	0.457723	1.65521
0.61	0.00436406	0.0704892	0.0321957	0.598563	0.920175	-0.208508	-0.34451	-0.062268	-0.360734	0.243821	0.472434	0.357725	-0.0217701	0.51248	0.0187578	-0.309918	0.346955	0.0668	0.259327	-0.0217746	-0.201814	-0.233868	0.163413	0.0606032	-0.316764	0.272691	0.805574	1.7068	-0.205153	-0.249848	0.111013	0.45192	1.65197
0.62	0.000435067	0.085735	0.0324571	0.611903	0.919361	-0.208981	-0.346522	-0.0816824	-0.351248	0.262868	0.457187	0.3385	-0.0217658	0.51374	0.0349835	-0.300656	0.36547	0.047395	0.229709	-0.0217702	-0.194338	-0.259519	0.16837	0.0446869	-0.308519	0.270834	0.802642	1.70486	-0.205009	-0.253358	0.103215	0.446283	1.64881
0.63	-0.00356082	0.101362	0.033348	0.625168	0.918842	-0.209526	-0.345726	-0.101963	-0.340438	0.286247	0.437192	0.316374	-0.0217614	0.514803	0.0516745	-0.292135	0.384061	0.0326442	0.203039	-0.0217659	-0.187381	-0.285534	0.172432	0.0291824	-0.299837	0.270459	0.799115	1.70256	-0.204005	-0.257031	0.0949279	0.44092	1.646
0.64	-0.00771354	0.116867	0.0346665	0.638314	0.918622	-0.21012	-0.341506	-0.122565	-0.327853	0.314393	0.412031	0.291041	-0.021757	0.51559	0.0682488	-0.284475	0.402414	0.0234697	0.179447	-0.0217616	-0.1808	-0.311311	0.175716	0.0143434	-0.290944	0.271837	0.795044	1.70013	-0.202154	-0.260673	0.0860218	0.435944	1.64372
0.65	-0.0121185	0.131768	0.0361279	0.651303	0.918698	-0.210736	-0.333269	-0.142964	-0.313121	0.347634	0.381528	0.26236	-0.0217526	0.51595	0.084162	-0.277798	0.420031	0.0201788	0.159079	-0.0217573	-0.174376	-0.33625	0.178412	0.000396623	-0.282106	0.275217	0.790527	1.69794	-0.19952	-0.264076	0.0763948	0.431476	1.64207
0.66	-0.0168448	0.145653	0.037384	0.664101	0.919051	-0.211351	-0.32054	-0.162701	-0.296006	0.38612	0.345849	0.230396	-0.0217482	0.515666	0.0989484	-0.272246	0.436282	0.0224774	0.14206	-0.0217529	-0.167871	-0.359815	0.180758	-0.0124657	-0.273614	0.280795	0.785706	1.69648	-0.196217	-0.26704	0.0660115	0.427649	1.64102
0.67	-0.0219039	0.15822	0.0380571	0.676679	0.919659	-0.211938	-0.303043	-0.181395	-0.276443	0.429767	0.305562	0.195427	-0.0217438	0.514473	0.112251	-0.267974	0.450502	0.0295793	0.128433	-0.0217486	-0.16108	-0.381568	0.183001	-0.024089	-0.265757	0.288671	0.780768	1.6963	-0.192389	-0.269399	0.0549314	0.4246	1.6405
0.68	-0.0272333	0.169294	0.0377881	0.689012	0.920494	-0.212476	-0.28076	-0.198759	-0.254542	0.478209	0.261667	0.157916	-0.0217395	0.512096	0.123838	-0.265115	0.4621	0.0403758	0.118102	-0.0217443	-0.153881	-0.4012	0.185349	-0.0343574	-0.25879	0.298815	0.77593	1.69794	-0.188196	-0.271043	0.0433198	0.422465	1.64035
0.69	-0.0327021	0.178818	0.0362906	0.701082	0.921526	-0.212948	-0.253945	-0.214579	-0.230586	0.5308	0.215575	0.118454	-0.0217351	0.508293	0.133611	-0.263733	0.470663	0.0536237	0.110802	-0.02174	-0.146265	-0.418532	0.187922	-0.043194	-0.25291	0.311048	0.771431	1.70188	-0.183787	-0.271921	0.0314417	0.421361	1.64039
0.7	-0.0381377	0.186817	0.0334033	0.712873	0.922726	-0.213345	-0.223098	-0.22869	-0.205003	0.586639	0.169017	0.0777064	-0.0217307	0.502905	0.141581	-0.263778	0.476024	0.0681183	0.106118	-0.0217356	-0.138342	-0.43349	0.190707	-0.0505612	-0.248237	0.325027	0.7675	1.70846	-0.179284	-0.27205	0.0196393	0.421369	1.64048
0.71	-0.0433628	0.193337	0.0291262	0.724372	0.924069	-0.213663	-0.188892	-0.24092	-0.178336	0.644631	0.123889	0.03635	-0.0217263	0.495902	0.147819	-0.265056	0.478296	0.0828342	0.103546	-0.0217313	-0.130317	-0.446053	0.193542	-0.0564612	-0.244805	0.340261	0.764339	1.7178	-0.174759	-0.271504	0.00829612	0.422518	1.64047
0.72	-0.0482113	0.198412	0.0236192	0.735572	0.925529	-0.21391	-0.152125	-0.251071	-0.15119	0.703554	0.0820463	-0.00495959	-0.021722	0.487368	0.152415	-0.267252	0.477841	0.0970134	0.102577	-0.021727	-0.122474	-0.456221	0.196133	-0.0609377	-0.242554	0.356147	0.76209	1.72978	-0.170227	-0.270403	-0.00220483	0.424773	1.6403
0.73	-0.0525354	0.202048	0.0171705	0.746472	0.927089	-0.214094	-0.113659	-0.258944	-0.124199	0.762139	0.0450861	-0.0455889	-0.0217176	0.477454	0.15546	-0.269969	0.475185	0.110194	0.102774	-0.0217227	-0.115144	-0.46401	0.198103	-0.064078	-0.241345	0.37202	0.760818	1.74402	-0.165643	-0.268907	-0.011523	0.428033	1.63995
